<?xml version="1.0" encoding="UTF-8"?>
<svg width="82px" height="76px" viewBox="0 0 82 76" version="1.1" xmlns="http://www.w3.org/2000/svg" xmlns:xlink="http://www.w3.org/1999/xlink">
    <!-- Generator: Sketch 42 (36781) - http://www.bohemiancoding.com/sketch -->
    <title>icon</title>
    <desc>Created with Sketch.</desc>
    <defs></defs>
    <g id="Page-1" stroke="none" stroke-width="1" fill="none" fill-rule="evenodd">
        <g id="icon" transform="translate(0.000000, -1.000000)" fill-rule="nonzero" fill="#000000">
            <g id="Group" transform="translate(0.000000, 0.637820)">
                <path d="M17,0.36238 C15.276209,0.35238 14.03284,2.09998 14,3.36238 L14,20.36238 L3,20.36238 C1.33399,20.36238 0.0328895,22.09818 -5.00000001e-07,23.36238 L-5.00000001e-07,66.3624 C-5.00000001e-07,71.736 4.324089,76.1482 9.65625,76.3312 C9.770119,76.3482 9.884929,76.3582 10,76.3622 L72,76.3622 C77.488111,76.3622 82,71.8503 82,66.3622 L82,3.36218 C81.999841,1.79138 80.570751,0.36238 79,0.36218 L17,0.36218 L17,0.36238 Z M20,6.36238 L76,6.36238 L76,66.3624 C76,68.6303 74.26789,70.3624 72,70.3624 L19.125,70.3624 C19.673699,69.1288 20,67.7905 20,66.3624 L20,6.36238 Z M27,10.36238 C25.36654,10.42038 24.03289,12.09818 24,13.36238 L24,27.36238 C24.00016,28.93318 25.42925,30.36218 27,30.36238 L47,30.36238 C48.57075,30.36218 49.99984,28.93318 50,27.36238 L50,13.36238 C49.99984,11.79158 48.57075,10.36258 47,10.36238 L27,10.36238 Z M57,12.36238 C55.343149,12.36238 54,13.70558 54,15.36238 C54,17.01928 55.343149,18.36238 57,18.36238 L69,18.36238 C70.656851,18.36238 72,17.01928 72,15.36238 C72,13.70558 70.656851,12.36238 69,12.36238 L57,12.36238 Z M30,16.36238 L44,16.36238 L44,24.36238 L30,24.36238 L30,16.36238 Z M57,22.36238 C55.343149,22.36238 54,23.70558 54,25.36238 C54,27.01928 55.343149,28.36238 57,28.36238 L69,28.36238 C70.656851,28.36238 72,27.01928 72,25.36238 C72,23.70558 70.656851,22.36238 69,22.36238 L57,22.36238 Z M6,26.36238 L14,26.36238 L14,66.3624 C14,68.6303 12.26789,70.3624 10,70.3624 C7.732109,70.3624 6,68.6303 6,66.3624 L6,26.36238 Z M27,34.36238 C25.34315,34.36238 24,35.70558 24,37.3624 C24,39.0193 25.34315,40.3624 27,40.3624 L69,40.3624 C70.656851,40.3624 72,39.0193 72,37.3624 C72,35.70558 70.656851,34.36238 69,34.36238 L27,34.36238 Z M27,45.3624 C25.34315,45.3624 24,46.7056 24,48.3624 C24,50.0193 25.34315,51.3624 27,51.3624 L69,51.3624 C70.656851,51.3624 72,50.0193 72,48.3624 C72,46.7056 70.656851,45.3624 69,45.3624 L27,45.3624 Z M27,56.3624 C25.34315,56.3624 24,57.7056 24,59.3624 C24,61.0193 25.34315,62.3624 27,62.3624 L69,62.3624 C70.656851,62.3624 72,61.0193 72,59.3624 C72,57.7056 70.656851,56.3624 69,56.3624 L27,56.3624 Z" id="Shape"></path>
            </g>
        </g>
    </g>
</svg>