<?xml version="1.0" encoding="UTF-8"?>
<svg width="200px" height="200px" viewBox="0 0 200 200" version="1.1" xmlns="http://www.w3.org/2000/svg" xmlns:xlink="http://www.w3.org/1999/xlink">
    <!-- Generator: Sketch 51.2 (57519) - http://www.bohemiancoding.com/sketch -->
    <title>Article</title>
    <desc>Created with Sketch.</desc>
    <defs></defs>
    <g id="Article" stroke="none" stroke-width="1" fill="none" fill-rule="evenodd">
        <circle id="Base" fill="#7484A6" cx="100" cy="100" r="100"></circle>
        <path d="M100,62.5 C100,59.0469 102.7969,56.25 106.25,56.25 L143.75,56.25 C147.2031,56.25 150,59.0469 150,62.5 C150,65.9531 147.2031,68.75 143.75,68.75 L106.25,68.75 C102.7969,68.75 100,65.9531 100,62.5 Z M143.75,81.25 L106.25,81.25 C102.7969,81.25 100,84.0469 100,87.5 C100,90.9531 102.7969,93.75 106.25,93.75 L143.75,93.75 C147.2031,93.75 150,90.9531 150,87.5 C150,84.0469 147.2031,81.25 143.75,81.25 Z M56.25,93.75 L81.25,93.75 C84.7031,93.75 87.5,90.9492 87.5,87.5 L87.5,62.5 C87.5,59.0508 84.7031,56.25 81.25,56.25 L56.25,56.25 C52.7969,56.25 50,59.0508 50,62.5 L50,87.5 C50,90.9492 52.7969,93.75 56.25,93.75 Z M93.75,131.25 L56.25,131.25 C52.7969,131.25 50,134.0469 50,137.5 C50,140.9531 52.7969,143.75 56.25,143.75 L93.75,143.75 C97.2031,143.75 100,140.9531 100,137.5 C100,134.0469 97.2031,131.25 93.75,131.25 Z M93.75,106.25 L56.25,106.25 C52.7969,106.25 50,109.0469 50,112.5 C50,115.9531 52.7969,118.75 56.25,118.75 L93.75,118.75 C97.2031,118.75 100,115.9531 100,112.5 C100,109.0469 97.2031,106.25 93.75,106.25 Z M143.75,106.25 L118.75,106.25 C115.2969,106.25 112.5,109.0508 112.5,112.5 L112.5,137.5 C112.5,140.9531 115.2969,143.75 118.75,143.75 L143.75,143.75 C147.2031,143.75 150,140.9531 150,137.5 L150,112.5 C150,109.0508 147.2031,106.25 143.75,106.25 Z" id="Layout" fill="#FFFFFF" fill-rule="nonzero"></path>
    </g>
</svg>